<svg width="224" height="225" viewBox="0 0 224 225" fill="none" xmlns="http://www.w3.org/2000/svg">
<path d="M118.707 -4.81848e-06V73.9473C118.707 91.4349 132.801 105.61 150.189 105.61H223.712C173.736 89.9424 134.285 50.2648 118.707 -4.81848e-06Z" fill="white"/>
<path d="M118.707 225.001V149.156C118.707 132.714 131.958 119.391 148.302 119.391H223.712C173.736 135.059 134.285 174.736 118.707 225.001Z" fill="white"/>
<path d="M105.005 -4.81848e-06V75.8453C105.005 92.2834 91.7548 105.61 75.4143 105.61H0C49.9769 89.9424 89.4272 50.2648 105.005 -4.81848e-06Z" fill="white"/>
<path d="M105.005 225.001V149.156C105.005 132.714 91.7548 119.391 75.4143 119.391H0C49.9769 135.059 89.4272 174.736 105.005 225.001Z" fill="white"/>
</svg>
