<?xml version="1.0" standalone="no"?>
<!DOCTYPE svg PUBLIC "-//W3C//DTD SVG 20010904//EN"
 "http://www.w3.org/TR/2001/REC-SVG-20010904/DTD/svg10.dtd">
<svg version="1.0" xmlns="http://www.w3.org/2000/svg"
 width="2037.000000pt" height="2033.505156pt" viewBox="0 0 2037.000000 2033.505156"
 preserveAspectRatio="xMidYMid meet">
<metadata>
Created by potrace 1.16, written by Peter Selinger 2001-2019
</metadata>
<g transform="translate(-1.500000,2036.214730) scale(0.100000,-0.100000)"
fill="#000000" stroke="none">
<path d="M10837 20326 c-12 -83 -8 -6614 4 -6776 29 -420 120 -761 300 -1126
141 -290 328 -544 571 -780 436 -423 963 -680 1613 -786 l140 -23 3460 -2
3460 -2 -55 21 c-30 11 -116 43 -190 70 -2889 1069 -5211 2739 -6916 4973
-786 1029 -1456 2199 -1997 3485 -123 294 -325 815 -379 980 -2 8 -8 -7 -11
-34z"/>
<path d="M9511 20173 c-405 -1095 -904 -2125 -1479 -3053 -1189 -1922 -2765
-3501 -4687 -4697 -970 -603 -2005 -1102 -3195 -1542 l-135 -50 3550 3 3550 2
128 22 c589 99 1086 342 1494 729 372 353 652 854 758 1353 52 242 57 310 65
895 10 649 11 6212 1 6358 l-6 98 -44 -118z"/>
<path d="M1530 9562 l-1445 -3 180 -65 c2730 -982 5125 -2710 6874 -4959 1007
-1295 1802 -2772 2332 -4337 54 -160 65 -184 74 -165 19 43 32 5394 15 6537
-7 492 -11 582 -28 696 -92 593 -347 1093 -771 1514 -424 422 -968 682 -1576
755 -158 19 -1845 35 -3295 32 -503 -1 -1565 -3 -2360 -5z"/>
<path d="M13410 9553 c-213 -15 -463 -60 -652 -117 -1038 -315 -1789 -1220
-1907 -2298 -15 -136 -14 -7076 1 -7033 469 1341 1017 2443 1773 3566 946
1407 2121 2642 3480 3661 1216 911 2578 1642 4005 2148 96 34 182 66 190 71
14 8 -6783 10 -6890 2z"/>
</g>
</svg>
